<svg xmlns="http://www.w3.org/2000/svg" viewBox="0 0 1200 630" width="1200" height="630">
  <rect width="1200" height="630" fill="#FAFDF9"/>
  <g transform="translate(450,165) scale(1.5)">
    <path fill="#4A6741" d="M256 32c-12.6 0-24.5 5.5-32.5 15.1C215.5 37.5 203.6 32 191 32c-26.5 0-48 21.5-48 48 0 4.1.5 8.1 1.5 12C116.3 101.5 96 128.3 96 160c0 53 43 96 96 96 12.6 0 24.5-5.5 32.5-15.1 8 9.6 19.9 15.1 32.5 15.1 26.5 0 48-21.5 48-48 0-4.1-.5-8.1-1.5-12 28.2-9.5 48.5-36.3 48.5-68 0-53-43-96-96-96zm-64 192c-35.3 0-64-28.7-64-64 0-23.7 12.9-44.3 32-55.4.7 2.4 1.5 4.8 2.5 7.1 4.3 10.1 11.1 18.6 19.5 24.9-1.6 7.3-2.5 14.8-2.5 22.4 0 26.5 10.8 50.5 28.2 67.8-5 .8-10.1 1.2-15.3 1.2zm128-80c0 17.7-14.3 32-32 32s-32-14.3-32-32 14.3-32 32-32 32 14.3 32 32z"/>
  </g>
  <text x="600" y="500" text-anchor="middle" font-family="Arial" font-size="48" fill="#4A6741">Cilantro</text>
</svg>