<svg xmlns="http://www.w3.org/2000/svg" viewBox="0 0 1200 630" width="1200" height="630">
  <rect width="1200" height="630" fill="#FAFDF9"/>
  <g transform="translate(400,100) scale(0.8)">
    <!-- Main leaf structure -->
    <path fill="#4A6741" d="M391.2 120.8c-31.2-31.2-81.9-31.2-113.1 0l-22.1 22.1-22.1-22.1c-31.2-31.2-81.9-31.2-113.1 0-31.2 31.2-31.2 81.9 0 113.1l22.1 22.1-113.1 113.1c-12.5 12.5-12.5 32.8 0 45.3s32.8 12.5 45.3 0l113.1-113.1 22.1 22.1c31.2 31.2 81.9 31.2 113.1 0 31.2-31.2 31.2-81.9 0-113.1l-22.1-22.1 22.1-22.1c31.2-31.2 31.2-81.9 0-113.1zM256 256c-17.7 0-32-14.3-32-32s14.3-32 32-32 32 14.3 32 32-14.3 32-32 32z"/>
    <!-- Additional leaf details -->
    <path fill="#4A6741" opacity="0.8" d="M256 128c-53 0-96 43-96 96s43 96 96 96 96-43 96-96-43-96-96-96zm0 160c-35.3 0-64-28.7-64-64s28.7-64 64-64 64 28.7 64 64-28.7 64-64 64z"/>
    <path fill="#4A6741" opacity="0.6" d="M320 224c0 35.3-28.7 64-64 64s-64-28.7-64-64 28.7-64 64-64 64 28.7 64 64zm-96 0c0 17.7 14.3 32 32 32s32-14.3 32-32-14.3-32-32-32-32 14.3-32 32z"/>
  </g>
  <text x="600" y="500" text-anchor="middle" font-family="Arial" font-size="48" fill="#4A6741">Cilantro</text>
</svg>